<?xml version="1.0" encoding="utf-8"?>
<!-- Generator: Adobe Illustrator 16.0.0, SVG Export Plug-In . SVG Version: 6.00 Build 0)  -->
<!DOCTYPE svg PUBLIC "-//W3C//DTD SVG 1.1//EN" "http://www.w3.org/Graphics/SVG/1.1/DTD/svg11.dtd">
<svg version="1.1" id="レイヤー_1" xmlns="http://www.w3.org/2000/svg" xmlns:xlink="http://www.w3.org/1999/xlink" x="0px"
	 y="0px" width="1638px" height="426px" viewBox="0 0 1638 426" style="enable-background:new 0 0 1638 426;" xml:space="preserve">
<path style="fill-rule:evenodd;clip-rule:evenodd;fill:#CB1E36;" d="M20,66.64c116.759-5.132,286.042,20.736,328,106
	c17.734,35.993,3.406,78.513-15,98c-47.075,49.716-97.793,57-193,67c-6,25.998-12,51.002-18,77c82.992,0,158.008-1,241-1
	c50.665-2.531,60.266-43.238,59-76c0-20.675,1-159.537,1-219c0-21.892,0.569-46.901-2-66c-6.653-19.786-25.111-37.462-47-42
	c-29.33,0-58.67,0-88,0c-73.326,0-146.674,0-220,0C42.677,16.463,20.17,37.458,20,66.64z"/>
<path style="fill-rule:evenodd;clip-rule:evenodd;fill:#3D3939;" d="M681,140.64c-14.644-46.097-55.21-54.999-117-55
	c-14.266,0-36.136,0-44,0s-14.292,5.137-14.292,16.07c0,10.933,0.292,35.526,0.292,46.93c0,57.994,0,116.006,0,174
	c17.332,0,33.668,0,51,0c0-26.664,0-53.336,0-80c63.087,1.175,98.493-8.222,119-49C681.211,183.277,686.563,158.15,681,140.64z
	 M606,215.64c-11.903,4.828-32.88,3.377-49,3c0-35.997,0-72.003,0-108c22.499-0.551,47.394-1.396,61,7
	C655.599,140.84,642.083,201.004,606,215.64z"/>
<path style="fill-rule:evenodd;clip-rule:evenodd;fill:#3D3939;" d="M1257,140.64c-14.648-46.097-54.207-54.999-116-55
	c-14.265,0-31.586,0-43,0s-15.685,5.896-15.685,19.177c0,13.28-0.315,33.234-0.315,43.823c0,57.994,0,116.006,0,174
	c17.332,0,33.668,0,51,0c0-26.664,0-53.336,0-80c63.176,1.18,98.511-9.109,119-50C1257.198,182.267,1262.567,158.16,1257,140.64z
	 M1182,215.64c-11.903,4.828-32.879,3.376-49,3c0-35.997,0-72.003,0-108c22.499-0.551,47.394-1.396,61,7
	C1231.635,140.863,1218.1,200.998,1182,215.64z"/>
<path style="fill-rule:evenodd;clip-rule:evenodd;fill:#CB1E36;" d="M20,136.64c0,58.994,0,118.006,0,177
	c0,30.127-2.821,61.874,11,78c14.959,17.455,33.492,22.298,67,22c22.664-93.324,46.336-185.676,69-279
	c-34.663-0.667-70.337-1.333-105-2C48.001,133.973,33.999,135.307,20,136.64z"/>
<path style="fill-rule:evenodd;clip-rule:evenodd;fill:#CB1E36;" d="M189,137.64c-5.542,17.485-11.463,47.746-17,71
	c-6.666,26.664-13.334,53.336-20,80c15.665,0,31.335,0,47,0c15.665-2,31.335-5,47-7c35.637-7.902,86.026-22.696,95-57
	c4.947-18.912-10.062-31.649-18-39C295.227,159.921,243.151,146.55,189,137.64z"/>
<path style="fill-rule:evenodd;clip-rule:evenodd;fill:#3D3939;" d="M887,356.64c0,9.333,0,18.667,0,28
	c25.066,0.015,43.718-2.592,57-14c18.641-16.01,27.494-43.821,38-68c16.267-37.439,33.305-75.389,50-114
	c5.89-13.621,10.309-23.934,18-43c-20.836,0-25.392-0.248-34,0c-10.021,22.655-26.714,62.898-47,109
	c-21.476-42.003-35.018-68.801-54-109c-16.665,0-29.803-0.024-53,0c0,1.333,8.1,17.877,81,161c2.118,6.593-3.727,12.557-5,16
	C928.733,347.705,922.45,357.221,887,356.64z"/>
<path style="fill-rule:evenodd;clip-rule:evenodd;fill:#3D3939;" d="M1463,356.64c0,9.333,0,18.667,0,28
	c25.066,0.015,44.718-2.592,58-14c18.746-16.1,26.423-43.657,37-68c27.982-64.402,60.396-138.677,68-157c-10.333,0-23.668,0-34,0
	c-6.16,15.573-13.499,31.945-48,109c-15.565-32.264-38.398-78.845-53-109c-17.017,0.018-35.75-0.135-53,0
	c6.326,13.632,19.901,40.332,81,161c2.118,6.593-2.728,12.557-4,16C1505.733,347.705,1498.45,357.221,1463,356.64z"/>
<path style="fill-rule:evenodd;clip-rule:evenodd;fill:#3D3939;" d="M846,208.64c0-35.868-13.82-50.069-40-59
	c-19.571-6.676-63.24-8.783-95,5c1.205,5.046,4.128,11.036,5,14c20.058-5.815,45.593-9.533,60-4c18.889,6.961,19,21.957,19,43
	c-33.869-11.805-90.895-5.751-101,43c-9.6,46.312,24.191,82.524,74,75c10.666-4,17.334-7,28-11c0,2.667,0,5.333,0,8
	c16.665,0,33.335,0,50,0C846.143,281.796,846,244.508,846,208.64z M796,290.64c-1.82,5.153-10.318,10.693-16,12
	c-35.883,8.251-59.957-31.903-41-60c5.897-8.74,15.013-11.097,25-16c10.875-0.489,28.698-1.004,32,6
	C796,251.972,796,271.309,796,290.64z"/>
<path style="fill-rule:evenodd;clip-rule:evenodd;fill:#3D3939;" d="M1422,209.64c0-37.558-13.418-49.936-40-59
	c-19.572-6.674-57.825-8.756-95,4c2.786,8.737,4.113,11.095,5,14c25.896-7.918,47.274-7.901,61-4c15.442,4.389,18.684,16.883,18,43
	c-46.168-11.354-90.665-1.98-100,43c-9.624,46.37,22.318,80.781,69,75c14.401-3.584,21.334-6.34,32-12c0,2.667,0,6.333,0,9
	c16.665,0,33.335,0,50,0C1421.693,280.938,1422,247.198,1422,209.64z M1372,290.64c-1.824,5.16-10.314,10.684-16,12
	c-35.834,8.293-60.025-31.964-41-60c5.706-8.408,15.396-11.27,25-16c10.89-0.489,28.678-1.003,32,6
	C1372,251.972,1372,271.309,1372,290.64z"/>
</svg>
